<svg fill="#BBBBBB" class="icon" style="vertical-align: middle; fill: currentColor; overflow: hidden;" viewBox="0 0 1024 1024" version="1.1" xmlns="http://www.w3.org/2000/svg">
    <path d="M803.367 132 663.512 132c-7.021 0-12.962 4.953-15.662 11.432-2.7 6.479-0.539 14.084 4.321 18.946 8.099 8.639 15.119 18.231 19.98 29.032 3.237 5.939 9.18 9.59 15.657 9.59l115.559 0C850.888 201 890 240.183 890 287.703l0 449.281C890 784.505 850.888 824 803.367 824L354.089 824C306.569 824 267 784.505 267 736.984l0-60.479c0-3.241-0.735-5.939-1.815-8.641-12.419-20.52-23.048-44.821-32.228-71.82-1.62-8.1-8.839-14.039-17.478-14.039-9.72 0-17.479 8.1-17.479 17.279l0 137.7C198 822.846 268.229 892 354.089 892l449.278 0C889.228 892 959 822.846 959 736.984L959 287.703C959 201.843 889.228 132 803.367 132zM499.052 494.804l58.125 58.125-69.75 69.749c-9.444 9.443-11.988 23.614-7.266 35.599 1.816 3.998 4.359 8.182 7.265 11.088 6.177 6.178 14.168 9.635 23.251 9.635l278.997 0c18.165 0 32.694-14.719 32.694-32.883l0.002-279.09c-0.002-8.721-3.271-17.121-9.446-23.298-2.907-2.906-6.903-5.473-10.898-7.29-11.988-4.72-26.154-2.191-35.602 7.254l-69.749 69.743-58.124-58.127c-236.857-236.856-379.261-155.483-476.62-58.125-72.655 72.655-96.628 212.15-97.72 218.327-0.726 5.085 1.091 10.532 4.724 14.165 1.453 1.454 3.27 2.545 5.085 3.633 6.902 2.545 15.257 0.729 19.616-5.084 72.292-94.814 135.501-140.586 198.712-144.946C353.014 379.282 419.132 414.885 499.052 494.804z"/>
</svg>